<mxfile host="app.diagrams.net" modified="2022-12-09T02:55:01.109Z" agent="5.0 (Macintosh; Intel Mac OS X 10_15_7) AppleWebKit/537.36 (KHTML, like Gecko) Chrome/107.0.0.0 Safari/537.36" etag="YjP5Fb15GvLgDn99W6jG" version="20.4.0" type="github" pages="2">
  <diagram id="prtHgNgQTEPvFCAcTncT" name="radar_nn">
    <mxGraphModel dx="901" dy="589" grid="1" gridSize="10" guides="1" tooltips="1" connect="1" arrows="1" fold="1" page="1" pageScale="1" pageWidth="827" pageHeight="1169" math="0" shadow="0">
      <root>
        <mxCell id="0" />
        <mxCell id="1" parent="0" />
      </root>
    </mxGraphModel>
  </diagram>
  <diagram id="Sb44eqpUz6qDXengAbje" name="第 2 页">
    <mxGraphModel dx="901" dy="589" grid="1" gridSize="10" guides="1" tooltips="1" connect="1" arrows="1" fold="1" page="1" pageScale="1" pageWidth="827" pageHeight="1169" math="0" shadow="0">
      <root>
        <mxCell id="0" />
        <mxCell id="1" parent="0" />
        <mxCell id="dRzGXTFHlpWNeI_Sd_36-51" value="refactorrr/Radar_nn" style="swimlane;html=1;childLayout=stackLayout;horizontal=1;startSize=20;horizontalStack=0;rounded=0;shadow=0;labelBackgroundColor=none;strokeWidth=1;fontFamily=Verdana;fontSize=8;align=center;" parent="1" vertex="1">
          <mxGeometry x="280" y="210" width="840" height="890" as="geometry">
            <mxRectangle x="20" y="870" width="70" height="30" as="alternateBounds" />
          </mxGeometry>
        </mxCell>
        <mxCell id="dRzGXTFHlpWNeI_Sd_36-52" value="Module" style="swimlane;html=1;startSize=20;horizontal=0;" parent="dRzGXTFHlpWNeI_Sd_36-51" vertex="1">
          <mxGeometry y="20" width="840" height="150" as="geometry">
            <mxRectangle y="20" width="680" height="30" as="alternateBounds" />
          </mxGeometry>
        </mxCell>
        <mxCell id="dRzGXTFHlpWNeI_Sd_36-106" value="Core" style="swimlane;html=1;startSize=20;horizontal=0;" parent="dRzGXTFHlpWNeI_Sd_36-51" vertex="1">
          <mxGeometry y="170" width="840" height="270" as="geometry">
            <mxRectangle y="20" width="680" height="30" as="alternateBounds" />
          </mxGeometry>
        </mxCell>
        <mxCell id="dRzGXTFHlpWNeI_Sd_36-109" value="r3t(radar_3d_track)" style="rounded=1;whiteSpace=wrap;html=1;shadow=0;labelBackgroundColor=none;strokeWidth=1;fontFamily=Verdana;fontSize=8;align=center;" parent="dRzGXTFHlpWNeI_Sd_36-106" vertex="1">
          <mxGeometry x="670" y="113.25" width="140" height="33.5" as="geometry" />
        </mxCell>
        <mxCell id="dRzGXTFHlpWNeI_Sd_36-111" value="&lt;font style=&quot;font-size: 18px;&quot;&gt;perception&lt;/font&gt;&lt;br&gt;&lt;div style=&quot;text-align: left;&quot;&gt;&lt;ol&gt;&lt;li&gt;&lt;span style=&quot;background-color: initial;&quot;&gt;startSchedule函数创建一个线程池，启动Parser、Perception、PublishResult三个线程，三个线程之间通过queue通信。&lt;/span&gt;&lt;/li&gt;&lt;li&gt;&lt;span style=&quot;background-color: initial;&quot;&gt;Parser线程将radar源数据（iopacket）转为序列化数据，叠满7帧将数据发给perception线程（待细看）&lt;/span&gt;&lt;/li&gt;&lt;li&gt;&lt;span style=&quot;background-color: initial;&quot;&gt;perception线程就是对数据进行前处理、推理、后处理，将结果发给publishResult线程。&lt;/span&gt;&lt;/li&gt;&lt;li&gt;&lt;span style=&quot;background-color: initial;&quot;&gt;publishResult线程就是将结果发布出去，下游（fushion或者track）订阅了该数据可以收到&lt;/span&gt;&lt;/li&gt;&lt;/ol&gt;&lt;/div&gt;" style="rounded=1;whiteSpace=wrap;html=1;shadow=0;labelBackgroundColor=none;strokeWidth=1;fontFamily=Verdana;fontSize=8;align=center;" parent="dRzGXTFHlpWNeI_Sd_36-106" vertex="1">
          <mxGeometry x="100" y="30" width="350" height="200" as="geometry" />
        </mxCell>
        <mxCell id="dRzGXTFHlpWNeI_Sd_36-93" value="Pipeline" style="swimlane;html=1;startSize=20;horizontal=0;" parent="dRzGXTFHlpWNeI_Sd_36-51" vertex="1">
          <mxGeometry y="440" width="840" height="150" as="geometry">
            <mxRectangle y="20" width="680" height="30" as="alternateBounds" />
          </mxGeometry>
        </mxCell>
        <mxCell id="dRzGXTFHlpWNeI_Sd_36-64" value="App" style="swimlane;html=1;startSize=20;horizontal=0;" parent="dRzGXTFHlpWNeI_Sd_36-51" vertex="1">
          <mxGeometry y="590" width="840" height="150" as="geometry" />
        </mxCell>
        <mxCell id="dRzGXTFHlpWNeI_Sd_36-68" value="Task" style="swimlane;html=1;startSize=20;horizontal=0;" parent="dRzGXTFHlpWNeI_Sd_36-51" vertex="1">
          <mxGeometry y="740" width="840" height="150" as="geometry" />
        </mxCell>
      </root>
    </mxGraphModel>
  </diagram>
</mxfile>
